# xmcd
#
# Track frame offsets: 
#        187
#        29015
#        71772
#        103565
#        130345
#        170815
#
# Disc length: 2759 seconds
#
# Revision: 1
# Processed by: cddbd v1.5.2PL0 Copyright (c) Steve Scherf et al.
# Submitted via: ExactAudioCopy v0.99pb5
#
DISCID=570ac506
DTITLE=Andre Previn's Trio Jazz - KING SIZE!
DYEAR=1959
DGENRE=Jazz
TTITLE0=I'll Remember April
TTITLE1=Much Too Late
TTITLE2=You'd Be So Nice to Come Home To
TTITLE3=It Could Happen to You
TTITLE4=Low and Inside
TTITLE5=I'm Beginning to See the Light
EXTD=YEAR: 1959
EXTT0=
EXTT1=
EXTT2=
EXTT3=
EXTT4=
EXTT5=
PLAYORDER=
